<svg xmlns="http://www.w3.org/2000/svg" width="618.27" height="501.668" viewBox="0 0 579.629 470.313"><style><![CDATA[.B{fill:#394655}.C{fill:#fff}.D{fill:#e1d6b9}.E{fill:#c4cbd2}.F{fill:#96d6ff}.G{fill:#aa7f5a}.H{fill:#dee3e8}.I{stroke-linecap:round}]]></style><g transform="matrix(-.437785 .092404 .196937 .586544 431.82577 -124.43795)"><path d="M419.84 584.573c-1.111 4.235-3.115 7.142-5.849 9.023s-6.192 2.761-10.137 3.239-8.374.598-13.054.661-9.607.026-14.585-.15-9.677-.663-13.949-1.445-8.123-1.835-11.288-3.158-5.635-2.924-7.074-4.891-1.838-4.3-.941-7.079 2.647-4.652 5.058-5.712 5.478-1.298 8.97-1.047 7.401.982 11.606 1.607 8.716 1.101 13.557.957 9.822-1.206 14.599-2.187 9.357-1.805 13.206-1.762 6.938.923 8.725 2.848.049 13.33 1.156 9.094z" class="D"/><path d="M411.667 570.505c-3.645-.32-7.912.035-12.443.673-5.179.729-10.69 1.782-16.256 1.963s-10.757-.278-15.641-.874-9.468-1.263-13.594-1.351-7.778.413-10.666 1.77-5.006 3.551-6.114 6.605-.683 5.795.966 8.195 4.516 4.463 8.197 6.211 8.163 3.193 13.121 4.283 10.401 1.797 16.157 2.058 11.242.3 16.338.219 9.799-.251 13.94-.875a34.26 34.26 0 0 0 4.471-.961c2.833-.826 3.606-5.67 1.067-4.354-2.353 1.219-5.13 1.888-8.235 2.279-3.784.477-8.034.605-12.53.676s-9.23.04-14.014-.121-9.298-.62-13.399-1.363-7.799-1.746-10.836-3.01-5.406-2.796-6.784-4.68-1.759-4.116-.894-6.781 2.549-4.465 4.863-5.489 5.253-1.265 8.601-1.039 7.096.909 11.133 1.495 8.371 1.036 13.029.899 9.454-1.149 14.045-2.094 8.982-1.753 12.668-1.736a23.1 23.1 0 0 1 1.348.044c1.122.071 2.17.205 3.101.477 1.074.314 2.955-2.605-.118-2.944-.499-.055-1.549.199-1.522-.178z" class="B"/></g><g transform="matrix(-.204087 .361094 .806085 .48598 131.018 -58.61035)"><path d="M767.299 387.327c11.124 7.966 31.778 11.3 44.732 15.545s18.149 9.359 22.129 13.373 5.944 7.145 4.718 9.527-5.544 3.994-14.001 4.812-15.91.121-23.024-1.726-13.807-4.866-21.706-8.603-17.327-8.051-25.811-14.184-17.623-13.9-23.142-24.134-5.782-21.344-5.371-30.883 1.511-17.554 2.716-23.749 2.715-10.674 4.771-13.67 4.652-4.527 7.719-4.527 5.704 1.831 7.625 5.499 3.048 9.244 3.286 16.76-.671 17.081.34 27.198 3.895 20.795 15.018 28.76z" class="B"/><path d="M760.817 387.615c8.354 7.229 23.404 11.345 36.928 14.854s21.763 7.51 26.414 11.295 7.043 6.961 6.893 9.28-3.072 3.852-9.994 4.537-13.125-.18-19.189-2.158-12.013-5.066-19.623-8.648-16.945-7.618-24.989-13.215-15.823-12.654-20.902-21.246-6.013-17.801-5.992-25.919.935-15.149 1.866-20.67 2.017-9.597 3.383-12.305 3.035-4.069 5.02-4.014 3.577 1.847 4.614 5.275 1.447 8.544 1.474 15.153-.436 14.761.913 23.275 4.831 17.275 13.184 24.504z" class="D"/></g><path d="M106.07 313.808c-7.513-1.779-13.197-5.845-18.138-9.516s-9.593-5.729-13.564-6.742-7.098-1.416-9.121-1.147-2.975 1.283-2.633 3.402 1.952 3.875 4.524 5.482 6.106 3.073 10.303 4.984 9.03 4.289 15.062 6.134 13.315 3.47 21.582 4.146 16.511.063 23.663-.728 13.224-1.741 17.962-2.551 8.183-1.526 10.383-2.192 3.172-1.293 2.852-1.877-2.117-.882-5.28-.859-7.729.396-13.557 1.027-12.95 1.556-20.638 1.979-15.886.237-23.399-1.542z" class="D"/><g transform="matrix(-.367849 -.054169 -.004901 .347649 52.36649 -132.47297)"><path d="M-626.547 402.353c2.228 10.863.345 21.826-3.867 31.425s-10.552 17.861-17.721 24.3-15.255 11.106-24.572 13.614-20.95 4.469-31.639 1.984-18.069-9.228-24.094-15.893-12.359-14.475-22.965-22.068-20.865-15.598-25.161-23.377-7.008-15.669-7.815-23.391.359-14.559 3.123-20.545 7.126-11.121 12.785-15.409 12.618-7.736 20.642-10.243 17.113-4.076 27.139-4.415 20.066.594 29.762 2.875 19.055 5.92 27.477 11.023 15.893 11.692 21.605 19.629 13.074 19.628 15.301 30.491z" class="F"/><g class="B"><path d="M-784.214 457.339c-.561.066-1.081.181-1.556.336-.633.207-1.184.485-1.635.827s-.802.747-1.028 1.219-.327 1.011-.274 1.62.253 1.234.58 1.849.99 1.252 1.835 1.842 1.357 1.205 1.825 1.729 1.135.854 2.024.927c.103.008.123-.305.034-.329-.781-.203-1.258-.72-1.719-1.111-.425-.466-.872-1.014-1.621-1.546s-1.473-1.093-1.777-1.639-.497-1.1-.555-1.642.024-1.022.219-1.443.502-.784.902-1.086a4.77 4.77 0 0 1 1.458-.724 6.76 6.76 0 0 1 .907-.215c.32-.053.658-.089 1.012-.102.708-.026 1.416.039 2.1.199s1.345.415 1.938.773 1.119.82 1.521 1.377.921 1.375 1.079 2.137a3.39 3.39 0 0 1-.133 1.834c-.038.107.498.294.628-.011.243-.57.234-1.241.103-1.874-.178-.857-.69-1.769-1.137-2.4s-1.031-1.153-1.689-1.553a7.14 7.14 0 0 0-2.143-.85c-.756-.17-1.54-.232-2.325-.191l-.575.048z" transform="matrix(13.851095 0 0 13.851095 10133.213 -6001.611)"/><path d="M-753.772 413.022c-.137-2.618 2.18-4.948 7.219-6.201 7.654-1.903 20.038 1.846 27.938 5.672 4.334 2.099 8.89 3.891 12.666 7.194 1.282 1.121 2.518 2.283 3.369 4.409-1.658.577-4.105-.921-5.873-2.13-6.968-4.765-14.695-8.09-22.677-9.126-6.716-.872-8.869-3.11-14.755-2.562-3.726.347-4.906 2.139-7.887 2.745z"/><path d="M-720.17 411.684c.285-2.325.87 3.904-.319 5.46-4.46 5.84-8.203 12.321-12.421 18.365-1.374 1.968-3.295.041-2.427-2.099.881-2.174 2.061-3.999 3.349-5.815 1.208-1.701 2.814-3.058 3.888-4.86 2.066-3.463 2.396-6.629 4.254-10.239.637-1.238 3.523.425 3.674-.809z"/></g></g><path d="M373.107 271.305c1.131 52.387-8.484 85.658-53.849 119.503-57.231 42.698-150.702 47.711-216.51 5.702-19.031-12.149-35.123-29.49-37.551-51.313-5.075-45.616 13.686-76.509 9.304-118.605-3.488-33.506-20.458-61.233-18.85-101.128 1.079-26.77 7.638-57.919 27.961-74.468 26.625-21.68 57.711-34.095 92.967-33.24 50.209 1.217 95.361 6.606 132.724 39.779 26.668 23.676 43.467 62.603 51.015 102.272 7.752 40.747 12.068 78.068 12.789 111.496z" class="B"/><path d="M363.295 312.103c-7.243 47.565-38.344 82.164-96.882 99.218-54.39 15.846-114.539 11.339-161.956-20.289-18.048-12.038-32.753-28.962-34.733-49.641-4.166-43.525 13.148-75.42 9.183-115.591-3.31-33.532-19.342-57.831-18.842-97.601.327-25.991 6.206-56.807 26.107-72.929 25.212-20.426 54.085-33.393 87.29-33.226 52.614.264 101.615 6.092 139.161 44.955 34.327 35.532 45.155 97.808 51.184 145.567 4.973 39.391 4.468 66.83-.513 99.536z" class="F"/><g transform="matrix(.223785 -.36032 .36032 .223785 72.52213 -261.474017)"><path d="M-626.573 401.696c2.247 11.351.367 22.389-3.843 32.038s-10.55 17.905-17.719 24.344-15.255 11.111-24.572 13.611-20.95 4.472-31.645 1.828-18.092-9.812-24.148-17.251-12.443-16.567-23.097-25.359-20.952-17.788-25.301-26.873-7.115-18.361-7.98-27.522.247-17.364 2.962-24.584 7.032-13.455 12.661-18.537 12.567-9.011 20.592-11.489 17.135-3.505 27.209-2.667 20.181 3.472 29.952 7.653 19.214 9.909 27.712 16.897 16.035 15.24 21.796 24.416 13.174 22.145 15.421 33.495z" class="F"/><g class="B"><path d="M-729.804 313.162c-7.804.204-15.02 1.477-21.594 3.628-8.766 2.867-16.376 7.295-22.585 12.949s-11.02 12.516-14.094 20.433-4.411 16.87-3.627 26.832 3.62 20.044 8.199 29.877 13.799 19.649 25.554 28.85 18.883 18.966 25.4 26.857c6.496 7.864 15.746 12.611 28.073 13.707 1.421.125 1.703-4.338.471-4.695-10.824-3.012-17.459-10.746-23.864-16.828-5.924-7.252-12.167-16.154-22.585-24.725s-20.489-17.343-24.751-26.201-6.989-17.908-7.846-26.841.229-16.925 2.877-23.968 6.862-13.142 12.367-18.104 12.287-8.793 20.143-11.219c3.928-1.212 8.14-2.069 12.584-2.524s9.137-.511 14.066-.111c9.858.81 19.73 3.377 29.281 7.451s18.786 9.669 27.079 16.486 15.637 14.858 21.258 23.809 12.861 21.592 15.071 32.66c1.815 9.089 1.039 17.996-1.815 26.044-.532 1.498 6.899 4.205 8.702-.028 3.361-7.902 3.245-17.238 1.408-26.282-2.485-12.23-9.618-25.915-15.848-35.834s-14.397-18.813-23.585-26.297-19.374-13.57-29.926-17.958-21.491-7.088-32.409-7.808c-2.73-.18-5.4-.226-8.001-.161zm-.469 69.751c1.807-2.764 6.313-3.63 13.246-1.617 10.531 3.058 22.434 14.978 28.948 24.047 3.573 4.975 7.642 9.783 9.648 15.624.681 1.983 1.276 3.978.689 6.704-2.406-.494-4.187-3.623-5.38-6.013-4.7-9.42-11.386-17.865-20.095-24.139-7.328-5.279-8.205-8.972-15.615-12.257-4.691-2.08-7.441-1.021-11.441-2.349z"/><path d="M-689.319 403.5c2.088-2.189-1.902 4.556-4.485 5.369-9.694 3.052-19.018 7.226-28.578 10.645-3.113 1.113-3.948-2.11-1.307-3.73 2.683-1.645 5.457-2.739 8.355-3.752 2.716-.949 5.644-1.285 8.277-2.424 5.061-2.187 7.833-5.206 12.758-7.68 1.689-.849 3.868 2.736 4.976 1.574z"/></g></g><g transform="matrix(.130588 -.42795 -.608698 -.110928 452.50605 662.52634)"><use href="#B" class="D"/><path d="M411.914 568.549c-3.75-.027-8.087.54-12.762 1.287-5.343.854-11.107 1.921-17.01 2.326s-11.411.383-16.447.414-9.604.161-13.508.859-7.135 1.967-9.408 3.969-3.585 4.717-3.652 8.176 1.218 6.307 3.543 8.58 5.688 3.98 9.762 5.25 8.852 2.119 14.057 2.598 10.834.561 16.703.223 11.471-.787 16.605-1.35 9.793-1.224 13.707-2.344c1.489-.426 2.867-.929 4.127-1.52 2.545-1.193 2.05-6.172-.1-4.541-1.992 1.512-4.144 1.682-7.157 2.351-3.673.815-8.181.991-12.55 1.343s-8.779 1.784-13.313 2.077-8.868.328-12.932.07-7.857-.781-11.125-1.643-5.997-2.08-7.885-3.814-2.925-3.987-2.979-6.801.902-4.819 2.669-6.106 5.617-.585 8.692-.714 6.906-.545 10.788-.417 6.546-.481 11.048-1.214 9.152-2.343 13.887-3.721 9.225-2.343 13.009-2.554a27.98 27.98 0 0 1 1.389-.045c1.16-.007 2.25.044 3.25.236 1.153.222 2.315-2.861-.838-2.928l-1.57-.049z" class="B"/></g><path d="M111.129 38.504c-3.781 2.074-7.474 4.308-11.043 6.725-4.756 3.339-9.755 6.576-13.986 10.512.839 1.447 2.548 3.192 1.121 4.812 2.446 2.943-1.748 2.747-3.463 11.321-2.344 11.719-6.094.938-12.656 1.406s-19.219 1.875-35.156 8.906c-8.847 3.903-11.627 4.332-14.515 2.906-.141 3.121.189 6.283 1.428 9.122 3.984 9.597 15.101 14.312 25.001 13.68 7.903-.988 15.259-4.479 23.225-5.211 4.873-.727 9.845-1.904 13.841-4.885 1.41-.862 1.831.94.906 1.804-3.953 6.016-11.689 6.669-18.155 7.612-2.133.377-4.307.817-6.308 1.602-1.368 17.14-1.834 34.635 2.045 51.508 5.094 24.705 15.682 48.48 16.038 74.006.882 33.813-12.036 66.422-10.073 100.291.256 11.752 3.537 23.56 10.638 33.052 13.271 18.509 33.723 30.225 54.305 38.95 26.278 10.685 55.094 14.839 83.357 13.048 31.668-2.258 63.465-10.2 90.916-26.512 15.958-9.458 29.802-22.711 39.467-38.54-30.476 13.401-58.269 26.75-113.368 25.225-90.98-2.518-95.701-63.737-97.5-74.531-6.562-39.375 8.438-75 5.156-120.469S105.321 93.438 99.228 78.907c-3.654-8.713-2.236-23.832 11.902-40.402zM68.927 76.878c1.91.13 4.673-.2 5.923 1.441-3.071 1.407-6.876.406-10.122.987-1.223 4.696-1.321 9.869-3.373 14.269-1.458-.007-.652-2.595-.732-3.541.32-3.21 2.163-6.687.835-9.838-3.216.607-6.463 1.821-9.587 2.915-1.893.806-3.251 3.304-4.843 3.904-.525-3.148 2.976-5.129 5.182-6.674 5.085-2.565 11.09-3.225 16.718-3.463z" opacity=".07" fill="#010101"/><path d="M64.413 289.48c2.377-1.349 3.255-1.76 4.977-1.351 85.065 20.205 227.934 42.137 250.907-9.322 16.883-37.819 41.619-71.496 46.827-78.412.915-1.215 4.925-1.261 4.925-1.261 9.281 36.46 5.975 117.797 4.678 148.835-1.487 35.578-7.718 61.34-7.718 61.34-8.148 19.544-146.847 29.487-229.47 19.754-65.041-7.662-76.165-16.155-76.165-16.155-4.459-41.066-9.602-71.457 1.038-123.428z" class="G"/><path d="M68.22 287.978c-1.085.007-2.024.49-3.807 1.501-10.64 51.971-5.497 82.362-1.038 123.428 0 0 11.123 8.493 76.165 16.155 41.796 4.924 97.923 4.805 144.26.963-28.409-11.722-63.179-23.344-100.159-31.749-55.206-12.547-84.233-58.245-98.21-106.479l-16.04-3.668a4.91 4.91 0 0 0-1.17-.152z" fill="#9e7551"/><g fill="#79593e"><path d="M62.229 287.467c5.156-3.75 11.217-3.717 14.967-.904s71.25 14.063 90.938 15.469 50.156 8.906 78.75 3.75 49.688-4.687 59.531-15.469 24.375-38.906 27.656-45.469 22.031-34.687 24.375-38.906 6.844-9.46 11.719-8.906c2.425.275 3.281 1.875 4.688 5.625s2.813 7.969 2.344 11.25-23.906 29.063-31.406 39.844-14.062 37.5-22.5 45.469-40.312 21.094-58.594 22.031-76.875 2.344-88.594-1.875-34.219-8.437-48.75-10.312-43.125-4.219-52.5-6.094-12.95-3.8-14.91-5.871c-2.349-2.481-2.771-5.953 2.287-9.631zm-2.845 118.627c3.75-11.719 8.438-8.437 15.938-7.5s33.75 12.656 49.688 14.063 71.719 4.688 89.531 4.219 97.969-7.5 109.219-9.375 24.844-6.562 31.406-8.906 13.594-4.219 17.344-3.75 3.281 4.219 2.344 8.906-3.281 9.375-13.594 13.594-64.687 21.563-99.844 17.344c-33.51-4.021-111.094 6.094-137.344-1.875s-61.406-12.187-63.281-16.406-1.406-10.312-1.406-10.312z"/><path d="M308.268 296.852c-32.483 20.55-42.426 45.078-57.01 70.932s-47.067 49.056-53.696 51.044 5.303 12.595 13.258 9.281 45.078-29.831 51.707-48.393 17.236-49.056 26.517-57.673 33.146-35.797 33.146-35.797z"/></g><g fill="#8e613b"><path d="M369.931 200.782c-2.578.234-28.359 37.734-30 41.719s-16.875 37.969-19.219 41.25-6.094 12.891-12.422 14.766-11.953 5.156-12.422 6.328 17.344-2.344 21.328-6.797 19.688-38.906 23.672-48.281 22.5-34.687 26.016-37.5 6.328-7.969 5.625-9.375-2.578-2.109-2.578-2.109z"/><path d="M309.072 299.688c-15 3.281-68.282 14.063-79.532 11.719s-40.781-.469-53.437-3.281-20.156-6.562-23.906-7.031-46.875-5.625-52.5-7.5-24.844-6.094-27.656-6.094-8.906 4.219-1.875 4.688 54.375 10.781 63.281 10.781 31.875 7.5 43.125 7.969 25.313 1.875 41.25 2.813 41.25 5.625 49.688 1.406 11.25-5.625 19.219-7.969 22.344-7.5 22.344-7.5zM66.636 401.923c-2.652.994-8.618.663-1.989 3.149s32.151 8.949 38.946 9.944 28.34 6.795 36.294 7.292 18.064-2.154 26.517-1.326 38.117 5.469 45.41 5.469 17.567.166 27.677-1.16 24.693-.331 29.997-1.492 20.55.829 34.306-2.32 15.744-4.475 27.842-7.458 15.744-4.143 22.208-5.469 15.744-4.143 16.739-5.966 1.492-3.812.166-3.48-27.345 6.463-39.609 11.435-29.002 6.795-34.637 6.795-18.562-.497-28.837-.497-36.792 3.646-47.73 3.812-28.339.166-31.654 0-18.396-1.326-24.362-1.326-13.755.497-21.545-.497-19.224-3.315-20.716-3.646-25.688-4.64-32.814-5.966-14.916-2.652-17.07-3.48-6.132-3.812-6.132-3.812z"/></g><path d="M410.946 160.938l3.281-16.992-.352-8.555 10.781-4.805 1.289 5.273 6.797 3.516z" fill="#6f421c"/><path d="M476.316 271.827l19.556 25.688 38.117-.331 25.191-25.522-49.221-4.143z" class="E"/><path d="M475.985 271.661l21.876 18.064 37.62-.331 24.196-17.733-31.323-13.258-24.031 2.154z" class="H"/><path d="M530.343 205.204l-4.309 57.176 2.817 2.32 4.475-.994.166-58.336zm-26.019.166l.497 58.005 3.977 2.983 1.989-1.657-3.315-58.999z" class="E"/><path d="M506.088 217.54h1.406l2.461 47.461-2.637-.527z" fill="#d3daac"/><path d="M507.639 181.008l-36.129 25.191 25.356 6.795 37.123.829 25.854-7.955-37.786-27.179z" class="H"/><path d="M512.905 180.16l-5.266.848-36.129 25.19 25.128 6.735z" class="E"/><path d="M518.22 179.305l-.434.07 13.334 34.384 2.869.064 2.666-.82z" class="C"/><path d="M374.852 433.282s29.895-45.917 32.813-72.187c3.383-30.457-17.316-59.389-18.75-90-1.442-30.784-2.593-63.89 10.313-91.875 8.426-18.27 23.253-32.773 37.22-43.858 15.794-12.535 34.389-25.694 51.374-23.748 17.652 2.022 28.427 19.047 35.282 40.294 3.191 9.892 2.266 28.248 2.266 28.248-5.525 3.844-11.226 5.931-19.573 1.822 0 0 4.182-18.528 1.751-26.339-4.504-14.468-14.78-25.652-25.973-27.914-12.151-2.455-25.895 8.14-37.438 17.192-11.311 8.87-23.701 19.988-30.706 35.281-12.947 28.264-14.566 62.862-12.328 94.647 2.077 29.502 23.75 55.744 24.375 85.313.537 25.386-17.812 74.063-17.812 74.063s-12.892 6.257-19.687 5.625c-4.87-.453-13.125-6.562-13.125-6.562z" fill="#6f421c"/><path d="M451.161 126.196c13.314-8.918 17.554-11.407 29.018-12.053s19.049.965 23.579 6.583 14.03 17.144 16.047 30.701 2.177 27.147 2.177 27.147-.727-25.122-5.572-32.347-10.007-24.778-20.408-28.462-24.317-1.748-30.496 1.494-22.897 15.974-22.897 15.974c4.327-4.931 5.496-6.989 8.552-9.036zm-25.215 34.039c-13.125 10.313-29.766 28.594-29.297 75.703s2.813 57.422 9.375 75.234 13.359 27.656 13.359 39.609-7.266 47.813-7.266 47.813 10.078-30 10.313-46.406-22.734-51.562-23.672-81.562.154-59.55 3.047-68.906c5.276-17.06 11.166-28.448 24.141-41.484z" class="G"/><path d="M471.676 206.364l6.961 64.965 2.652 1.989 3.977-.331-8.618-67.286zm23.202 5.635l1.795 72.827 2.514 1.751 3.977-1.823-4.64-74.412z" class="E"/><path d="M526.947 262.481l1.289 1.172 3.574-45.703h-1.875z" fill="#c9d0c5"/><g class="E"><path d="M530.012 212.993l7.624-.994-2.652 74.246-6.298.663zm24.859-7.955h4.972l-2.983 66.291-2.359 1.685-1.95-1.022z"/><path d="M471.166 203.36l-1.641 3.867 1.172 2.109 24.961 8.086 38.086.586 27.773-7.5s.703-6.562.234-6.562-2.93-2.109-2.93-2.109l-22.617 6.094c-.586.117-8.32.938-8.32.938l-26.133-.82c-.469 0-5.508-1.289-5.508-1.289l-21.68-4.219z"/></g><path d="M472.455 203.946l26.133 5.859 32.578.234 26.953-6.68 2.344 1.406.469 1.992-28.945 5.391-35.156-.234z" class="H"/><path d="M518.275 249.504c-5.372 0-9.727 1.781-9.727 3.979v23.353c0 2.198 4.355 3.979 9.727 3.979s9.727-1.781 9.727-3.979v-23.353c0-2.198-4.355-3.979-9.727-3.979z" fill="#944e3f"/><ellipse cx="518.204" cy="252.717" rx="7.872" ry="2.59" fill="#dbc69a"/><path d="M522.72 256.177c1.657-.373 2.362-.912 2.486-.746s.466 3.053.3 4.13-.5 17.475-1.204 17.807-.01-11.245-.246-16.44c-.047-1.038-1.336-4.752-1.336-4.752z" fill="#ab776b"/><path d="M509.255 254.064c.142.525 1.135 1.137 2.55 1.723.166.414-1.017 18.817.226 21.51 1.326 1.16 4.226 2.983 4.226 2.983s-6.008-1.243-6.671-2.693-.287-17.308-.29-17.93-.24-5.296-.041-5.593z" fill="#824537"/><path d="M515.711 250.909c-4.426-4.675-1.309-6.919.312-13.651s-4.55-11.469-4.55-11.469 13.545 7.072 12.467 15.272c-1.412 10.733-4.337 11.397-8.228 9.849z" fill="#faff4d" stroke="#fbff6c" stroke-width="1.995"/><path d="M554.54 212.413l1.989-.663-2.569 60.905-1.574-.663zm-55.572 5.097l-.439-.059 3.972 67.426.746-.29zm-21.709-5.947l-2.344-.703 8.438 62.344 1.758-.352z" fill="#c9d0c5"/><path d="M421.435 132.169l2.461-1.172.82 5.391 5.332 4.102-7.734 7.969.762-7.91-.937-2.344z" class="G"/><g transform="matrix(-.656101 0 0 .656101 470.62453 -71.55975)"><path d="M548.721 340.8c-.52 13.375-4.316 25.742-10.695 36.902s-15.339 21.111-26.172 29.564-23.538 15.42-37.442 20.417-29.01 8.023-44.707 8.28-30.507-2.32-43.895-7.523-25.353-13.031-35.314-23.04-17.916-22.196-23.266-35.914-8.092-28.966-7.638-44.918 4.057-31.076 10.174-44.517 14.747-25.194 25.27-34.507 22.94-16.179 36.669-20.026 28.777-4.664 44.564-2.16 30.825 8.053 44.49 15.598 25.954 17.075 36.203 27.773 18.457 22.567 23.965 35.065 8.315 25.631 7.795 39.006z" class="B"/><path d="M541.046 337.957c-.07 12.659-3.188 24.529-8.8 35.341s-13.723 20.563-23.741 28.872-21.943 15.181-35.117 20.066-27.593 7.782-42.596 7.941-29.168-2.463-41.952-7.554-24.19-12.652-33.689-22.206-17.093-21.1-22.235-34.001-7.831-27.159-7.515-41.984 3.608-28.792 9.27-41.146 13.694-23.092 23.505-31.578 21.399-14.719 34.215-18.243 26.863-4.335 41.613-2.207 28.812 6.955 41.624 13.599 24.371 15.101 34.083 24.722 17.577 20.412 23 31.935 8.405 23.786 8.335 36.444z" class="C"/><circle cx="458.074" cy="316.134" r="30.81" fill="#394455"/><circle r="15.152" cy="301.992" cx="444.437" class="C"/></g><g transform="matrix(-.498219 -.255998 -.255998 .498219 660.5198 69.72858)"><path d="M543.558 331.067c-5.89 11.69-15.078 22.985-25.703 33.945s-22.582 21.65-34.28 31.753-23.123 19.605-34.041 27.325-21.415 13.595-31.979 16.308-20.293 1.987-29.3-1.716-20.579-7.782-27.667-16.705-12.852-20.065-16.545-32.612-5.311-26.496-4.098-40.971 5.152-28.081 11.459-40.132 14.982-22.542 25.54-31.051 28.076-16.59 41.777-21.1 28.665-6.93 44.042-7.106 29.689 1.903 42.094 5.854 22.901 9.796 30.672 17.188 12.814 16.33 14.364 26.326-.445 21.006-6.334 32.695z" class="B"/><path d="M537.419 330.35c-5.108 10.937-13.143 21.741-22.757 32.268s-20.774 20.795-32.097 30.275-22.754 18.16-33.657 25.097-21.325 12.103-31.513 14.452-19.289 1.633-27.556-1.756-19.131-6.979-25.397-15.108-11.268-18.293-14.365-29.758-4.286-24.227-2.879-37.48 5.288-25.721 11.317-36.781 14.208-20.709 24.096-28.574 26.642-15.543 39.39-19.789 26.629-6.596 40.846-6.894 27.399 1.477 38.779 4.96 20.954 8.69 28.024 15.305 11.634 14.636 13.092 23.7-.215 19.146-5.323 30.082z" class="C"/><g transform="rotate(9.459)"><circle cx="436.023" cy="235.828" r="27.721" fill="#394455"/><circle r="13.633" cy="222.476" cx="428.564" class="C"/></g></g><path d="M281.818 192.41c-34.597 10.508-41.504 65.424-29.448 82.054m70.648-89.309c18.135 5.084 25.989 24.861 28.081 28.085m-35.104-19.829c19.402 19.999 18.389 43.561 17.334 47.155m-57.364-51.158c-72.196 14.825-52.501 63.839-49.231 73.344" fill="none" stroke="#8cc8ee" stroke-width="4.84" class="I"/><path d="M299.451 162.684l-1.533.082a22.15 22.15 0 0 0-5.845 1.331c-1.792.678-3.394 1.569-4.691 2.602-.929.74-1.694 1.556-2.261 2.415l-1.344.331c-3.423.951-6.649 2.282-9.338 3.909s-4.899 3.503-6.189 5.62c-1.321 2.168-1.77 4.612-1.619 6.548.177 2.271 1.576 4.326 3.565 6.176s4.736 3.49 7.917 4.834a43.05 43.05 0 0 0 3.984 1.43l-.751 5.244-1.406 7.112c-.253 1.281.084 2.408.705 3.23s1.574 1.29 2.697 1.317l3.745.09 7.407-.172c1.421-.033 2.74-.586 3.708-1.434s1.54-2.001 1.655-3.259l.648-7.055.269-3.598c3.085-.473 5.892-1.238 8.355-2.177 2.814-1.073 5.18-2.347 7.042-3.759s3.238-2.976 4.107-4.722a9.51 9.51 0 0 0 .916-5.764c-.315-2.083-1.292-4.114-2.8-5.98-1.255-1.554-2.885-2.981-4.764-4.235a7.32 7.32 0 0 0-.117-1.523c-.24-1.267-.8-2.48-1.648-3.578s-1.984-2.078-3.356-2.873-2.979-1.405-4.766-1.767a19.74 19.74 0 0 0-4.292-.374z" fill="#8cc8ee"/><path d="M283.446 189.766c-34.639 9.844-33.81 62.166-21.74 77.745m62.99-84.542c37.164 6.958 33.529 65.609 30.227 66.269m-37.259-58.535c34.349 20.665 15.947 76.175 15.947 76.175m-56.025-79.925c-63.295 11.484-44.924 68.487-42.72 68.487" fill="none" stroke="#394655" stroke-width="4.688" class="I"/><path d="M301.694 189.187l-6.368.083-3.711-.082c-1.184-.026-2.238.536-3.007 1.364s-1.147 1.975-1.326 3.227l-1.013 7.086-1.407 7.111c-.253 1.281.084 2.41.705 3.231s1.574 1.29 2.697 1.316l3.745.089 7.407-.173c1.421-.033 2.74-.585 3.708-1.433s1.54-2.001 1.656-3.259l.648-7.056.525-7.045c.094-1.254-.467-2.377-1.254-3.182s-1.857-1.284-3.005-1.277z" fill="#2e3436"/><path d="M300.532 191.332l-5.197.07-2.475-.101c-.94-.039-1.808.436-2.461 1.114s-1.034 1.618-1.212 2.643l-1.003 5.793-1.255 5.808c-.224 1.037.002 1.971.489 2.642s1.267 1.034 2.199 1.071l2.542.101 5.885-.128c1.114-.024 2.175-.472 2.973-1.164s1.309-1.635 1.439-2.665l.73-5.77.63-5.763c.113-1.026-.286-1.947-.892-2.606a3.18 3.18 0 0 0-2.395-1.045z" class="C"/><path d="M271.553 183.179c.177 2.271 1.577 4.326 3.565 6.177s4.736 3.491 7.917 4.834 6.77 2.377 10.405 2.929 7.318.613 10.937.177 6.861-1.305 9.675-2.378 5.178-2.347 7.041-3.759 3.239-2.977 4.109-4.724 1.23-3.68.915-5.763-1.292-4.115-2.799-5.981-3.535-3.566-5.916-4.98-5.113-2.542-8.128-3.282-6.318-1.091-9.931-.972-7.219.694-10.642 1.645-6.65 2.283-9.339 3.911-4.899 3.503-6.189 5.619c-1.321 2.168-1.77 4.612-1.619 6.547z" class="B"/><path d="M279.202 182.669c.31 1.804 1.366 3.489 2.987 4.999s3.805 2.847 6.287 3.914 5.249 1.856 8.071 2.271a32.07 32.07 0 0 0 8.532.107c2.831-.346 5.359-1.03 7.553-1.905s4.045-1.938 5.497-3.125 2.509-2.502 3.132-3.934.814-2.985.49-4.631-1.139-3.225-2.341-4.667-2.789-2.743-4.659-3.821-4.019-1.93-6.39-2.481-4.962-.802-7.767-.685-5.573.586-8.187 1.342-5.071 1.798-7.146 3.062-3.76 2.751-4.833 4.373-1.535 3.377-1.225 5.182z" fill="#e1d0cb"/><path d="M289.24 171.657c.452 1.293 1.436 2.441 2.797 3.41s3.093 1.761 4.973 2.368 3.899 1.031 5.875 1.257 3.909.252 5.72.052 3.34-.607 4.633-1.174 2.352-1.293 3.186-2.149 1.445-1.841 1.799-2.932.452-2.29.212-3.557-.801-2.482-1.649-3.579-1.983-2.077-3.355-2.872-2.981-1.404-4.767-1.766-3.752-.476-5.823-.291-4.054.651-5.846 1.33-3.394 1.569-4.691 2.602-2.289 2.209-2.844 3.453-.672 2.556-.22 3.849z" class="B"/><path d="M328.276 71.408c-6.25 1.231-12.09 4.631-15.593 10.04-3.719 5.361-4.394 12.055-4.274 18.402.068 11.067 3.653 21.74 7.245 32.086 4.987 13.085 10.58 26.119 18.563 37.69 4.99 7.217 12.221 13.685 21.266 14.744 5.12.5 10.503 1.147 15.505-.381 8.066-3.251 14.666-9.441 19.966-16.205 5.346-7.481 9.08-16.232 10.466-25.336-2.902 3.676-6.281 8.112-9.626 12.872-8.618 12.264-20.883 21.545-38.782 15.247s-33.825-65.243-33.825-75.85c0-4.467 2.077-18.602 9.088-23.309zm-131.64 8.095c-.582-.001-1.165-.003-1.747.013-24.441.701-47.903 12.979-63.715 31.41-9.062 10.76-15.507 24.408-15.306 38.698-.519 15.903 7.864 31.04 19.655 41.281 12.656 11.006 28.925 17.728 45.59 19.312 8.736.263 17.654.528 26.138-1.926 17.989-4.537 33.853-16.972 42.171-33.605-25.874 13.742-56.87 29.151-82.354 16.1-30.798-15.772-36.792-37.124-32.814-59.663 3.231-18.31 16.087-31.369 62.382-51.619z" opacity=".07"/><g transform="matrix(-.18128 -.409063 -.532878 .314419 520.38962 281.55143)"><use href="#B" class="D"/><path d="M411.914 568.549c-3.75-.027-8.087.54-12.762 1.287-5.343.854-11.107 1.921-17.01 2.326s-11.411.383-16.447.414-9.604.161-13.508.859-7.135 1.967-9.408 3.969-3.585 4.717-3.652 8.176 1.218 6.307 3.543 8.58 5.688 3.98 9.762 5.25 8.852 2.119 14.057 2.598 10.834.561 16.703.223 11.471-.787 16.605-1.35 9.793-1.224 13.707-2.344c1.489-.426 2.867-.929 4.127-1.52 2.545-1.193 2.05-6.172-.1-4.541-1.992 1.512-4.56 2.504-7.57 3.207-3.669.857-7.967 1.341-12.559 1.768s-9.475.76-14.379 1.057-9.565.335-13.852.084-8.199-.769-11.535-1.646-6.095-2.13-8.037-3.937-3.066-4.178-3.131-7.223.961-5.278 2.814-6.814 4.531-2.37 7.789-2.738 7.093-.272 11.322-.154 8.858.226 13.783-.117 9.88-1.417 14.582-2.443 9.14-1.972 12.924-2.184a27.98 27.98 0 0 1 1.389-.045c1.16-.007 2.25.044 3.25.236 1.153.222 2.315-2.861-.838-2.928l-1.57-.049z" class="B"/></g><defs ><path id="B" d="M423.503 581.835c-.004 4.4-1.198 7.589-3.375 9.828s-5.332 3.552-9.146 4.443-8.282 1.395-13.057 1.838-9.852.791-14.95 1.099-9.945.347-14.402.086-8.524-.799-11.993-1.712-6.337-2.214-8.356-4.093-3.187-4.345-3.255-7.511.998-5.486 2.925-7.084 4.712-2.464 8.1-2.847 7.373-.283 11.77-.161 9.211.235 14.332-.122 10.272-1.473 15.16-2.541 9.504-2.051 13.438-2.271 7.178.323 9.398 2.046 3.414 4.599 3.41 9z"/></defs></svg>
